<?xml version="1.0" standalone="no"?>
<!DOCTYPE svg PUBLIC "-//W3C//DTD SVG 20010904//EN"
 "http://www.w3.org/TR/2001/REC-SVG-20010904/DTD/svg10.dtd">
<svg version="1.0" xmlns="http://www.w3.org/2000/svg"
 width="200.000000pt" height="200.000000pt" viewBox="0 0 200.000000 200.000000"
 preserveAspectRatio="xMidYMid meet">
<metadata>
Created by potrace 1.14, written by Peter Selinger 2001-2017
</metadata>
<g transform="translate(0.000000,200.000000) scale(0.100000,-0.100000)"
fill="#000000" stroke="none">
<path d="M430 1000 l0 -910 100 0 100 0 2 357 3 358 210 6 c168 5 226 11 290
28 226 60 371 190 420 376 21 84 20 253 -3 337 -35 123 -114 217 -234 276
-133 65 -261 82 -630 82 l-258 0 0 -910z m665 701 c131 -35 216 -108 247 -215
18 -60 15 -192 -5 -257 -23 -77 -87 -147 -166 -183 -92 -41 -192 -56 -377 -56
l-164 0 0 363 c0 200 3 367 8 372 4 4 90 5 192 2 142 -4 204 -10 265 -26z"/>
</g>
</svg>
